<svg width="20" height="20" viewBox="0 0 20 20" fill="none" xmlns="http://www.w3.org/2000/svg">
<path d="M10.9588 12.2531C10.7279 12.3482 10.4632 12.3957 10.1647 12.3957C9.80429 12.3957 9.51144 12.3339 9.28617 12.2103C9.06089 12.0868 8.88349 11.918 8.75396 11.7041C8.63006 11.4902 8.54558 11.2454 8.50053 10.9697C8.45547 10.694 8.43295 10.4064 8.43295 10.107V9.90018C8.43295 9.60071 8.45547 9.31551 8.50053 9.04456C8.55121 8.76887 8.63851 8.52406 8.76241 8.31016C8.88631 8.0915 9.06089 7.92038 9.28617 7.79679C9.51144 7.66845 9.80148 7.60428 10.1563 7.60428C10.4886 7.60428 10.7673 7.66845 10.9926 7.79679C11.2235 7.92038 11.3981 8.08675 11.5164 8.2959C11.6403 8.50505 11.705 8.73797 11.7107 8.99465H14C13.9944 8.38146 13.8282 7.85146 13.5016 7.40463C13.1806 6.95306 12.7357 6.60606 12.1668 6.36364C11.6037 6.12121 10.9476 6 10.1985 6C9.49454 6 8.88068 6.09982 8.35692 6.29947C7.83316 6.49911 7.39669 6.77718 7.04752 7.13369C6.69835 7.48544 6.43647 7.89899 6.26188 8.37433C6.08729 8.84492 6 9.35354 6 9.90018V10.107C6 10.6488 6.08729 11.1575 6.26188 11.6328C6.43647 12.1034 6.69835 12.5169 7.04752 12.8734C7.39669 13.2252 7.83316 13.5009 8.35692 13.7005C8.88631 13.9002 9.50581 14 10.2154 14C10.9194 14 11.5558 13.8812 12.1246 13.6435C12.6934 13.4011 13.1468 13.0707 13.4847 12.6524C13.8226 12.2294 13.9944 11.7469 14 11.205H11.7107C11.705 11.4474 11.6346 11.6589 11.4995 11.8396C11.3699 12.0154 11.1897 12.1533 10.9588 12.2531Z" fill="#00E670"/>
<path fill-rule="evenodd" clip-rule="evenodd" d="M0 3C0 1.34315 1.34315 0 3 0H17C18.6569 0 20 1.34315 20 3V17C20 18.6569 18.6569 20 17 20H3C1.34315 20 0 18.6569 0 17V3ZM3 2H17C17.5523 2 18 2.44771 18 3V17C18 17.5523 17.5523 18 17 18H3C2.44772 18 2 17.5523 2 17V3C2 2.44772 2.44771 2 3 2Z" fill="#00E670"/>
</svg>
