<svg width="18" height="20" viewBox="0 0 18 20" fill="none" xmlns="http://www.w3.org/2000/svg">
<path d="M0.448246 9.59155C0.425456 9.57362 0.403719 9.55412 0.383209 9.53311C0.135844 9.27975 -0.0109252 8.93977 0.00063598 8.58498C0.000214412 8.57059 3.62745e-06 8.55616 3.62745e-06 8.54167C3.62745e-06 8.45517 0.0075727 8.37044 0.0220785 8.28808C0.439201 3.64081 4.29612 0 8.99235 0C13.9671 0 18 4.08543 18 9.12493C18 12.499 16.1922 15.4454 13.5043 17.0243L14.2099 18.1175C14.7322 18.9267 14.1591 20 13.2047 20H7.66585C6.72627 20 6.15056 18.9563 6.64299 18.1457L9.32851 13.7249C9.78996 12.9653 10.8747 12.9502 11.3566 13.6967L11.8573 14.4725C13.7278 13.4419 14.9975 11.4335 14.9975 9.12493C14.9975 5.76546 12.3086 3.04164 8.99235 3.04164C5.87098 3.04164 3.3055 5.45468 3.0147 8.53957C2.97942 8.91383 2.83958 9.27252 2.57538 9.53656L2.52831 9.58361L2.36248 9.69454C2.11455 9.88601 1.80321 10 1.46512 10C1.07017 10 0.711732 9.84446 0.448246 9.59155Z" fill="black"/>
</svg>
