<svg width="20" height="20" viewBox="0 0 20 20" fill="none" xmlns="http://www.w3.org/2000/svg">
<path d="M14 8.06357C14.3248 7.61692 14.2261 6.99151 13.7794 6.66667C13.3328 6.34183 12.7074 6.44058 12.3825 6.88723L8.99836 11.5405L7.31596 10.1945C6.8847 9.84952 6.2554 9.91945 5.91039 10.3507C5.56539 10.782 5.63531 11.4113 6.06657 11.7563L8.15777 13.4292C8.82578 13.9636 9.80475 13.832 10.3079 13.1402L14 8.06357Z" fill="black"/>
<path fill-rule="evenodd" clip-rule="evenodd" d="M20 10C20 15.5228 15.5228 20 10 20C4.47715 20 0 15.5228 0 10C0 4.47715 4.47715 0 10 0C15.5228 0 20 4.47715 20 10ZM18 10C18 14.4183 14.4183 18 10 18C5.58172 18 2 14.4183 2 10C2 5.58172 5.58172 2 10 2C14.4183 2 18 5.58172 18 10Z" fill="black"/>
</svg>
