<svg width="20" height="20" viewBox="0 0 20 20" fill="none" xmlns="http://www.w3.org/2000/svg">
<path d="M5.62392 1.50627C5.9685 1.16169 5.9685 0.603016 5.62392 0.258435C5.27934 -0.0861451 4.72066 -0.0861451 4.37608 0.258435L0.258435 4.37608C-0.0861451 4.72066 -0.0861451 5.27934 0.258435 5.62392C0.603016 5.9685 1.16169 5.9685 1.50627 5.62392L5.62392 1.50627Z" fill="#00E670"/>
<path d="M10 6.76471C10.4873 6.76471 10.8824 7.15975 10.8824 7.64706V9.63452L12.9769 11.729C13.3214 12.0736 13.3214 12.6323 12.9769 12.9769C12.6323 13.3214 12.0736 13.3214 11.729 12.9769L9.54837 10.7962C9.27258 10.5204 9.11765 10.1464 9.11765 9.75635V7.64706C9.11765 7.15975 9.51269 6.76471 10 6.76471Z" fill="#00E670"/>
<path fill-rule="evenodd" clip-rule="evenodd" d="M15.4326 15.3819C16.8016 14.0001 17.6471 12.0988 17.6471 10C17.6471 5.77665 14.2234 2.35294 10 2.35294C5.77665 2.35294 2.35294 5.77665 2.35294 10C2.35294 12.1851 3.26947 14.1562 4.73906 15.5498L2.5217 18.5987C2.23508 18.9928 2.32221 19.5446 2.71632 19.8312C3.11042 20.1179 3.66226 20.0307 3.94889 19.6366L6.15074 16.6091C7.28132 17.269 8.5965 17.6471 10 17.6471C11.486 17.6471 12.8729 17.2232 14.0466 16.4899L16.0203 19.5914C16.2819 20.0025 16.8273 20.1237 17.2384 19.8621C17.6495 19.6004 17.7707 19.0551 17.5091 18.6439L15.4503 15.4086C15.4445 15.3996 15.4386 15.3907 15.4326 15.3819ZM10 15.8824C13.2487 15.8824 15.8824 13.2487 15.8824 10C15.8824 6.75127 13.2487 4.11765 10 4.11765C6.75127 4.11765 4.11765 6.75127 4.11765 10C4.11765 13.2487 6.75127 15.8824 10 15.8824Z" fill="#00E670"/>
<path d="M14.3761 0.258435C14.7207 -0.0861451 15.2793 -0.0861451 15.6239 0.258435L19.7416 4.37608C20.0861 4.72066 20.0861 5.27934 19.7416 5.62392C19.397 5.9685 18.8383 5.9685 18.4937 5.62392L14.3761 1.50627C14.0315 1.16169 14.0315 0.603016 14.3761 0.258435Z" fill="#00E670"/>
</svg>
