<svg width="18" height="20" viewBox="0 0 18 20" fill="none" xmlns="http://www.w3.org/2000/svg">
<path d="M4 1C4 0.447715 3.55228 0 3 0H2C0.895431 0 0 0.895431 0 2V3C0 3.55228 0.447715 4 1 4C1.55228 4 2 3.55228 2 3V2H3C3.55228 2 4 1.55228 4 1Z" fill="white"/>
<path d="M1 11C0.447715 11 0 11.4477 0 12V13C0 14.1046 0.895431 15 2 15H3C3.55228 15 4 14.5523 4 14C4 13.4477 3.55228 13 3 13H2V12C2 11.4477 1.55228 11 1 11Z" fill="white"/>
<path d="M10.6667 4C11.219 4 11.6667 3.55228 11.6667 3V2C11.6667 0.895431 10.7712 0 9.66667 0H8.66667C8.11438 0 7.66667 0.447715 7.66667 1C7.66667 1.55228 8.11438 2 8.66667 2H9.66667V3C9.66667 3.55228 10.1144 4 10.6667 4Z" fill="white"/>
<path fill-rule="evenodd" clip-rule="evenodd" d="M5 18C5 19.1046 5.89543 20 7 20H16C17.1046 20 18 19.1046 18 18V7C18 5.89543 17.1046 5 16 5H7C5.89543 5 5 5.89543 5 7V18ZM15.9474 17.8571V7.14286H7.05263V17.8571H15.9474Z" fill="white"/>
</svg>
