<svg width="160" height="32" viewBox="0 0 160 32" fill="none" xmlns="http://www.w3.org/2000/svg">
<path d="M18.7203 13.3754C18.8887 13.0536 19.0345 12.7206 19.1571 12.3788C19.7875 10.6249 19.6606 8.89149 18.7769 7.17957C17.7251 5.14295 15.7253 3.35828 12.7773 1.82654C12.4382 1.65272 8.0459 -0.565546 4.68396 0.137091C4.06628 0.268439 3.47522 0.502814 2.93542 0.830939C1.1189 1.89051 0.310913 3.58387 0 4.36756L4.17139 6.71082C4.55017 6.30311 4.99756 5.96522 5.49329 5.71229C5.92749 5.48133 6.39807 5.32654 6.88452 5.25379C7.9928 5.10584 9.20935 5.3744 10.5343 6.05945C11.8618 6.74256 12.7581 7.5077 13.2231 8.35389C13.6882 9.20008 13.7096 10.0302 13.2874 10.8446C13.0723 11.2645 12.7086 11.5892 12.2673 11.7557C11.728 11.9481 11.1545 12.0277 10.5831 11.9882L7.76843 11.893C6.34839 11.8246 5.20544 11.996 4.3396 12.4071C4.01062 12.5629 3.70239 12.7601 3.42236 12.9926C2.97681 13.3749 2.61023 13.8407 2.34326 14.3637C1.4491 15.9887 1.31042 18.6517 1.29749 18.9203L5.12976 21.0038C6.06494 19.2157 6.78821 17.9042 7.05676 17.4071C7.12842 17.2616 7.21802 17.1268 7.323 17.0053C7.36633 16.955 7.41235 16.9071 7.46082 16.8617C7.53064 16.7958 7.60559 16.7357 7.68494 16.681C7.78003 16.619 7.88074 16.5653 7.9856 16.5219C8.47241 16.3466 8.99072 16.2763 9.50659 16.3148L12.6206 16.4125C12.7183 16.4227 12.8147 16.4227 12.911 16.4227C14.2565 16.4545 15.4102 16.2201 16.3719 15.7201L16.4052 15.702L16.4348 15.6854C16.9851 15.3954 17.4813 15.0131 17.902 14.5551C18.0275 14.4169 18.1458 14.2723 18.2565 14.1224C18.3062 14.0551 18.3542 13.9867 18.4008 13.9174L18.4471 13.8466L18.4979 13.767L18.5565 13.6708C18.614 13.5741 18.6687 13.4755 18.7203 13.3754Z" fill="white"/>
<path d="M1.08289 27.764C1.31165 27.8983 1.5658 27.9843 1.82922 28.0155C2.2373 28.079 2.60339 28.0477 2.92773 27.9208C2.9696 27.9042 3.01086 27.8861 3.05139 27.8666C3.10608 27.8402 3.15955 27.8109 3.21167 27.7792C3.23975 27.7621 3.26758 27.7435 3.29504 27.7245L3.3606 27.6766C3.57422 27.5101 3.75232 27.3026 3.88477 27.0663C4.01709 26.83 4.10095 26.5697 4.13135 26.3007C4.22388 25.7001 4.11682 25.1893 3.81018 24.768C3.50366 24.3466 3.05054 24.0897 2.45105 23.9974C2.19128 23.9476 1.92407 23.9515 1.66589 24.0087C1.40759 24.0658 1.16382 24.1752 0.949219 24.33C0.52356 24.639 0.264526 25.0936 0.171997 25.6928C0.120239 25.9589 0.122681 26.2323 0.178955 26.497C0.235229 26.7621 0.344238 27.0131 0.499634 27.2347C0.655518 27.4491 0.854126 27.6298 1.08289 27.764Z" fill="white"/>
<path fill-rule="evenodd" clip-rule="evenodd" d="M37.384 28.0365C36.0763 28.0599 34.7793 27.7968 33.584 27.2655C32.5256 26.7968 31.615 26.0487 30.9504 25.101C30.3107 24.1757 29.9912 23.0941 29.9921 21.8558C29.9921 20.6439 30.2974 19.5824 30.9081 18.6708C31.5414 17.7401 32.4156 16.9994 33.4376 16.5267C34.582 15.9974 35.8315 15.7338 37.0925 15.7562C38.4799 15.7562 39.6738 16.056 40.6742 16.6552C41.6754 17.2553 42.4792 18.1351 42.9866 19.1859C43.5287 20.2758 43.7993 21.5551 43.7985 23.0248H34.1416C34.2159 23.2069 34.3055 23.3837 34.41 23.5526C34.7853 24.1151 35.3231 24.5492 35.9517 24.7977C36.6249 25.0829 37.447 25.226 38.4182 25.2269C38.6605 25.2264 38.9025 25.2172 39.1437 25.1996C39.3572 25.1845 39.5701 25.162 39.7821 25.1332C40.2208 25.0736 40.6558 24.9857 41.084 24.8695C41.9269 24.6503 42.7335 24.3099 43.4786 23.8583V26.329C42.632 26.8895 41.7025 27.3143 40.7242 27.5868C39.6377 27.8934 38.5131 28.0448 37.384 28.0365ZM34.139 20.2528C34.0848 20.3773 34.0388 20.5053 34.0013 20.6351H40.1321C40.0536 20.3685 39.9434 20.1117 39.8031 19.8695C39.5448 19.4388 39.1746 19.0863 38.7317 18.8495C38.5754 18.7704 38.4136 18.704 38.2478 18.6508C37.9668 18.5599 37.6746 18.5077 37.3788 18.4945C37.3024 18.4911 37.2257 18.4906 37.149 18.4926C36.5497 18.4764 35.9557 18.6088 35.4198 18.8778C34.9473 19.1244 34.5541 19.4994 34.2854 19.9594L34.2307 20.0599C34.1979 20.1234 34.1674 20.1879 34.139 20.2528Z" fill="white"/>
<path fill-rule="evenodd" clip-rule="evenodd" d="M47.9658 25.892C48.8859 26.3539 49.9043 26.5848 50.9333 26.5653C51.8911 26.5819 52.8416 26.3978 53.7238 26.0243C54.4978 25.6937 55.2064 25.2274 55.8164 24.6473C55.9004 24.5682 55.9821 24.4867 56.0615 24.4032C56.1016 24.3612 56.1411 24.3187 56.1801 24.2753V24.7938C56.1766 26.0966 55.8002 27.058 55.0508 27.6781C54.3014 28.2977 53.2257 28.6078 51.8236 28.6078C51.3912 28.6078 50.9598 28.5785 50.5323 28.5214C50.0133 28.452 49.5 28.3412 48.9974 28.1893C48.3806 27.9994 47.7874 27.7435 47.2278 27.4266C46.9109 27.2474 46.6047 27.0487 46.3112 26.8314V29.7245C47.165 30.2606 48.0853 30.683 49.0488 30.9808C50.0326 31.268 51.0532 31.4086 52.078 31.3983C53.6608 31.3983 55.0491 31.1332 56.2429 30.6029C57.3802 30.119 58.353 29.3158 59.0436 28.2909C59.7167 27.2777 60.0533 26.0492 60.0533 24.6063V16.0736H56.1801V18.1263C55.8486 17.7518 55.4788 17.4125 55.0764 17.1141C54.7935 16.9032 54.4955 16.7142 54.1851 16.5487C53.8761 16.3837 53.5549 16.2421 53.224 16.1249C52.4883 15.8661 51.7131 15.7382 50.9333 15.747C49.9043 15.7279 48.8859 15.9589 47.9658 16.4203C47.1213 16.851 46.4106 17.5038 45.9103 18.309C45.4042 19.1171 45.1506 20.0663 45.1498 21.1556C45.1489 22.245 45.4025 23.1942 45.9103 24.0038C46.4106 24.8085 47.1213 25.4618 47.9658 25.892ZM54.5369 23.2626C53.8511 23.7138 53.0454 23.9486 52.2245 23.9369V23.933C51.6338 23.9496 51.047 23.8324 50.5082 23.5902C50.3333 23.5101 50.1691 23.4105 50.0184 23.2938C49.9886 23.2709 49.9594 23.247 49.9305 23.2225L49.8711 23.1703C49.8405 23.1425 49.8105 23.1141 49.7812 23.0848C49.642 22.9457 49.5188 22.7899 49.4149 22.62C49.1671 22.1693 49.0381 21.6635 49.0398 21.1493C49.0406 20.8944 49.0737 20.642 49.1373 20.3973L49.1718 20.2758L49.1968 20.1976L49.2175 20.1376L49.2383 20.0814C49.2595 20.0258 49.2823 19.9706 49.3069 19.9159L49.3352 19.8554L49.3694 19.7855L49.4252 19.6805C49.5442 19.4896 49.6873 19.3158 49.8501 19.163C50.0466 18.9789 50.272 18.8261 50.5184 18.7108C50.7861 18.5883 51.066 18.497 51.3527 18.4384L51.4288 18.4232L51.5117 18.4091L51.6335 18.392C51.8293 18.3671 52.0273 18.3573 52.2258 18.3627C52.5455 18.3593 52.8628 18.393 53.1715 18.4623C53.3685 18.5067 53.562 18.5658 53.7504 18.6381C53.8417 18.6732 53.9318 18.7118 54.0205 18.7538C54.1228 18.8021 54.2233 18.8544 54.3217 18.911C54.3911 18.9511 54.4595 18.993 54.5266 19.037C55.2126 19.4857 55.8062 20.1932 56.3071 21.1596C55.807 22.1127 55.2169 22.8138 54.5369 23.2626Z" fill="white"/>
<path d="M67.0355 28.016C65.9401 28.016 64.998 27.7948 64.2092 27.3519C63.4336 26.9198 62.8086 26.2606 62.4185 25.4633C62.0082 24.6473 61.8035 23.681 61.8043 22.5653V16.0736H65.6776V22.014C65.6776 22.9559 65.9062 23.6771 66.3636 24.1771C66.821 24.6776 67.4805 24.9291 68.342 24.9325C68.5929 24.9408 68.8427 24.9198 69.0863 24.87C69.2083 24.8451 69.3287 24.8129 69.447 24.7738C69.6261 24.7142 69.8002 24.6386 69.9672 24.5472C70.076 24.4833 70.1797 24.4115 70.2773 24.3329C70.4253 24.2142 70.5596 24.0795 70.6779 23.9315C70.7222 23.8763 70.7642 23.8192 70.8038 23.7601C70.8755 23.6537 70.9393 23.5419 70.9949 23.4247C71.2494 22.8827 71.3743 22.2889 71.3597 21.6903L71.3674 21.6942V16.0736H75.2214V23.7494L75.9923 27.7089H72.1165L71.7048 25.2191C71.6639 25.2929 71.6217 25.3651 71.5781 25.4364C71.1074 26.2372 70.4357 26.9017 69.6293 27.3632C68.8354 27.8012 67.9419 28.0258 67.0355 28.016Z" fill="white"/>
<path d="M81.7311 16.0736H77.8771L78.6222 20.0404V27.7089H82.502V21.8436C82.5078 21.6952 82.5226 21.5472 82.5461 21.4008C82.5602 21.3134 82.5775 21.2264 82.5979 21.1405C82.6604 20.8759 82.7521 20.6176 82.8719 20.371C83.0055 20.1073 83.1813 19.8695 83.391 19.6659C83.5583 19.5033 83.7473 19.3622 83.9536 19.2479C84.1332 19.1513 84.3204 19.0717 84.5129 19.0096C84.8701 18.8949 85.2456 18.8402 85.6237 18.8495C86.5264 18.8495 87.2206 19.098 87.7062 19.5946C88.1918 20.0917 88.4346 20.8231 88.4346 21.7889V27.7089H92.3079V21.2172C92.307 20.0878 92.0955 19.118 91.6732 18.309C91.262 17.5121 90.6241 16.8549 89.84 16.4203C89.0417 15.9716 88.0735 15.7474 86.9353 15.7474C86.0135 15.7377 85.105 15.9672 84.2979 16.4125C83.4784 16.8744 82.7903 17.5375 82.299 18.3397L82.2137 18.4789L82.157 18.577L81.7311 16.0736Z" fill="white"/>
<path d="M93.3071 18.891V17.2377L95.7648 16.3588L97.4091 12.975H99.6381V16.079H104.76V18.8959H99.6381V22.7333C99.6381 23.6044 99.8182 24.2133 100.179 24.5599C100.539 24.9071 101.185 25.0805 102.116 25.0805C102.503 25.0839 102.889 25.0555 103.27 24.997C103.405 24.976 103.54 24.9511 103.673 24.9222C104.116 24.8256 104.548 24.6859 104.964 24.5048V27.3827C104.433 27.578 103.887 27.7284 103.33 27.8324C102.641 27.9691 101.94 28.0375 101.237 28.0365C99.9733 28.0365 98.9357 27.8392 98.1246 27.4442C97.3635 27.098 96.7352 26.514 96.3339 25.7806C95.9363 25.0009 95.7393 24.1342 95.7609 23.2587V18.891H93.3071Z" fill="white"/>
<path fill-rule="evenodd" clip-rule="evenodd" d="M109.341 27.2655C110.466 27.7792 111.777 28.0365 113.276 28.0365C114.775 28.0355 116.087 27.7792 117.212 27.268C118.271 26.8041 119.182 26.059 119.846 25.1137C120.485 24.1722 120.816 23.056 120.794 21.9188C120.794 20.681 120.478 19.6029 119.846 18.684C119.182 17.7387 118.271 16.993 117.212 16.5297C116.087 16.0155 114.775 15.7587 113.276 15.7587C111.777 15.7587 110.466 16.0155 109.341 16.5297C108.284 16.9916 107.376 17.7372 106.717 18.684C106.092 19.601 105.78 20.6718 105.78 21.8954C105.758 23.0346 106.085 24.1527 106.717 25.101C107.373 26.0526 108.282 26.8026 109.341 27.2655ZM115.224 24.7797C114.621 25.0599 113.961 25.1967 113.297 25.1781C112.629 25.1962 111.967 25.0595 111.361 24.7797C110.841 24.5346 110.406 24.14 110.112 23.6464C109.91 23.2904 109.775 22.9022 109.713 22.5009C109.682 22.2997 109.668 22.0956 109.674 21.8905C109.658 21.2733 109.81 20.6635 110.112 20.1254C110.268 19.8583 110.466 19.62 110.696 19.4183C110.773 19.351 110.854 19.2875 110.938 19.2284L110.989 19.1942C111.022 19.1718 111.055 19.1503 111.089 19.1293L111.155 19.0897C111.222 19.0512 111.291 19.015 111.361 18.9818C111.967 18.703 112.629 18.5668 113.297 18.5839C113.961 18.5658 114.621 18.702 115.224 18.9818C115.739 19.2299 116.168 19.6288 116.452 20.1254C116.747 20.6659 116.894 21.2748 116.878 21.8905C116.895 22.5033 116.748 23.1097 116.452 23.6464C116.355 23.8129 116.242 23.9681 116.115 24.1102C115.866 24.3886 115.564 24.6166 115.224 24.7797Z" fill="white"/>
<path d="M122.085 16.0736H125.939L126.365 18.5751L126.441 18.4447L126.506 18.3397C126.997 17.5375 127.685 16.8744 128.505 16.4125C128.893 16.1986 129.304 16.0346 129.728 15.9227C130.188 15.8021 130.663 15.7426 131.142 15.7474C132.281 15.7474 133.249 15.9716 134.047 16.4203C134.831 16.8549 135.469 17.5121 135.88 18.309C136.302 19.118 136.514 20.0878 136.515 21.2172V27.7089H132.642V21.7889C132.642 21.4467 132.611 21.1337 132.55 20.8505C132.499 20.6122 132.426 20.3944 132.332 20.1976C132.221 19.9681 132.082 19.7675 131.913 19.5946C131.428 19.098 130.733 18.8495 129.831 18.8495C129.249 18.8348 128.673 18.9721 128.161 19.2479C127.696 19.5062 127.319 19.8969 127.078 20.371C126.971 20.5912 126.887 20.8207 126.826 21.056C126.761 21.3041 126.722 21.559 126.71 21.8163V27.7089H122.834V20.0404L122.085 16.0736Z" fill="white"/>
<path d="M139.114 14.3334C139.546 14.6762 140.103 14.8471 140.784 14.8471C141.48 14.8471 142.037 14.6762 142.454 14.3334C142.657 14.1679 142.82 13.9569 142.928 13.7181C142.989 13.5839 143.032 13.4428 143.057 13.2982C143.076 13.1859 143.083 13.0712 143.079 12.9564C143.084 12.8402 143.077 12.724 143.059 12.6102C143.035 12.4647 142.992 12.3226 142.931 12.1879C142.823 11.9467 142.659 11.7343 142.454 11.5673C142.034 11.225 141.477 11.0536 140.784 11.0536C140.43 11.0536 140.11 11.099 139.825 11.1903C139.76 11.2113 139.697 11.2347 139.635 11.2601C139.444 11.3397 139.27 11.4423 139.114 11.5673C138.912 11.7367 138.749 11.9486 138.638 12.1874C138.526 12.4262 138.469 12.6869 138.469 12.9506C138.469 13.0927 138.485 13.2338 138.518 13.371L138.541 13.4555C138.566 13.5438 138.599 13.6298 138.638 13.7133C138.692 13.83 138.758 13.9398 138.835 14.0414C138.869 14.0853 138.905 14.1283 138.942 14.1693C138.995 14.2274 139.053 14.2821 139.114 14.3334Z" fill="white"/>
<path d="M140.763 16.2953L138.846 15.9096L138.845 27.7079H142.699V15.9096L140.763 16.2953Z" fill="white"/>
<path d="M159.066 22.891C158.963 23.8793 158.559 24.8129 157.91 25.5658C157.219 26.3637 156.348 26.9862 155.369 27.3822C154.262 27.8319 153.076 28.0541 151.881 28.036C150.452 28.036 149.188 27.7792 148.091 27.265C147.052 26.7968 146.165 26.0468 145.53 25.1005C144.911 24.1478 144.592 23.0311 144.614 21.8954C144.591 20.7631 144.91 19.6498 145.53 18.7015C146.169 17.7587 147.055 17.0101 148.091 16.537C149.187 16.0145 150.45 15.7528 151.881 15.7518C153.076 15.7333 154.262 15.9555 155.369 16.4047C156.346 16.7992 157.216 17.4183 157.91 18.2108C158.565 18.9716 158.969 19.9169 159.066 20.9164H155.212C155.19 20.7899 155.158 20.6659 155.118 20.5448C155.046 20.3305 154.947 20.1263 154.823 19.9369C154.628 19.64 154.374 19.3861 154.078 19.1908C153.7 18.9388 153.271 18.766 152.788 18.6718C152.504 18.6166 152.202 18.5888 151.881 18.5883C151.265 18.5736 150.655 18.7059 150.1 18.974C149.603 19.2245 149.193 19.6195 148.924 20.1068C148.633 20.6566 148.49 21.2714 148.507 21.8925C148.489 22.5111 148.632 23.1234 148.924 23.6693C149.195 24.1527 149.605 24.5438 150.1 24.7924C150.655 25.0604 151.265 25.1928 151.881 25.1776C152.755 25.1776 153.491 24.9701 154.088 24.5546C154.666 24.1683 155.069 23.5712 155.212 22.891H159.066Z" fill="white"/>
<path d="M27.5472 15.7587C27.8086 15.7596 28.0697 15.7738 28.3297 15.8012C28.5928 15.8285 28.854 15.8715 29.1121 15.9296V19.3402C28.728 19.2562 28.34 19.1918 27.9493 19.1478C27.5996 19.1073 27.248 19.0863 26.896 19.0848C26.2456 19.0741 25.6019 19.2162 25.0165 19.4999C24.4482 19.787 23.9845 20.245 23.6907 20.8099C23.3652 21.4071 23.2025 22.1805 23.2025 23.1312V28.2406H19.1609V20.1254L18.4492 17.9169C19.2664 17.4345 20.0032 16.828 20.6332 16.1185L22.4639 16.099L23.0137 19.3505C23.2172 18.7548 23.4998 18.1884 23.8539 17.6679C24.2439 17.0936 24.7603 16.6161 25.3633 16.2723C25.9629 15.9301 26.6908 15.7587 27.5472 15.7587Z" fill="white"/>
</svg>
