<svg xmlns="http://www.w3.org/2000/svg" viewBox="0 0 293.42 406.78"><defs><style>.cls-1{fill:#fff;}</style></defs><g id="Capa_2" data-name="Capa 2"><g id="Capa_4" data-name="Capa 4"><path class="cls-1" d="M55.6,215.26a65,65,0,0,1,12.4-22,61.16,61.16,0,0,1,11.81-10.41Q97,171.19,127.71,168l40.45-4.87q14.34-1.65,23.57-7a27.35,27.35,0,0,0,12.56-15.28q6.38-18.87-6.4-35.45T154.4,78.44q-30.7-10.38-54-3.46a62.75,62.75,0,0,0-18.88,9.63,69.44,69.44,0,0,0-16.7,17.21L0,77.45c2.72-11.79,10.53-37.81,34.18-57A80.46,80.46,0,0,1,57.62,6.71C104.15-10.78,171.83,11.24,177,13q68.3,23.07,97.61,63.25T287.55,165a77.81,77.81,0,0,1-28.4,38.72q-20.34,14.9-52.09,18.19l-44.72,5.42q-13.29,1.51-21.29,6.33a25,25,0,0,0-4,2.93,27.63,27.63,0,0,0-7.39,11.76c-2.73,7.7-10.16,28.05-19.63,55.63l-59.36-21.2C50.3,278.85,46.42,240.48,55.6,215.26Z"/><path class="cls-1" d="M85.21,406.78q-12.64,0-20.74-8.22t-8.1-21.36q0-13.15,8.1-21.22t20.74-8.07q13.19,0,21.14,8.07t8,21.22q0,13.14-8,21.36T85.21,406.78Z"/></g></g></svg>